<?xml version="1.0" standalone="no"?>
<!DOCTYPE svg PUBLIC "-//W3C//DTD SVG 20010904//EN"
 "http://www.w3.org/TR/2001/REC-SVG-20010904/DTD/svg10.dtd">
<svg version="1.0" xmlns="http://www.w3.org/2000/svg"
 width="30.000000pt" height="9.000000pt" viewBox="0 0 30.000000 9.000000"
 preserveAspectRatio="xMidYMid meet">

<g transform="translate(0.000000,9.000000) scale(0.100000,-0.100000)"
fill="#000000" stroke="none">
<path d="M136 81 c-4 -5 -1 -11 5 -13 5 -2 -1 -14 -15 -27 -21 -20 -26 -21
-26 -8 0 11 -8 17 -25 17 -30 0 -34 -25 -6 -40 30 -16 45 -12 85 19 20 16 51
33 68 36 23 5 27 9 17 16 -18 12 -96 11 -103 0z"/>
</g>
</svg>
